<?xml version="1.0" encoding="UTF-8" standalone="no"?>
<!-- Created with Inkscape (http://www.inkscape.org/) -->

<svg
   width="244.07716mm"
   height="71.317093mm"
   viewBox="0 0 244.07716 71.317094"
   version="1.1"
   id="svg1"
   xml:space="preserve"
   inkscape:version="1.3.2 (091e20e, 2023-11-25, custom)"
   sodipodi:docname="interncify full branding.svg"
   inkscape:export-filename="..\..\interncify full branding.svg"
   inkscape:export-xdpi="96"
   inkscape:export-ydpi="96"
   xmlns:inkscape="http://www.inkscape.org/namespaces/inkscape"
   xmlns:sodipodi="http://sodipodi.sourceforge.net/DTD/sodipodi-0.dtd"
   xmlns="http://www.w3.org/2000/svg"
   xmlns:svg="http://www.w3.org/2000/svg"><sodipodi:namedview
     id="namedview1"
     pagecolor="#ffffff"
     bordercolor="#000000"
     borderopacity="0.25"
     inkscape:showpageshadow="2"
     inkscape:pageopacity="0.0"
     inkscape:pagecheckerboard="0"
     inkscape:deskcolor="#d1d1d1"
     inkscape:document-units="mm"
     inkscape:zoom="0.03125"
     inkscape:cx="3952"
     inkscape:cy="-544"
     inkscape:window-width="1920"
     inkscape:window-height="991"
     inkscape:window-x="-9"
     inkscape:window-y="-9"
     inkscape:window-maximized="1"
     inkscape:current-layer="layer1"
     inkscape:export-bgcolor="#ffffff00" /><defs
     id="defs1" /><g
     inkscape:label="Layer 1"
     inkscape:groupmode="layer"
     id="layer1"
     transform="translate(-366.69797,-281.71265)"><g
       id="g9-4-3"
       transform="translate(297.83674,212.37118)"><path
         id="path7-1-9"
         style="fill:#006fff;fill-opacity:1;stroke-width:0.189145;stroke-miterlimit:3"
         d="m 85.672601,69.341455 a 0.4483039,0.4483039 0 0 0 -0.31677,0.131258 l -2.72904,2.727999 a 1.0820014,1.0820014 0 0 0 -0.31729,0.765328 v 11.655619 a 1.344866,1.344866 0 0 1 -1.34462,1.345138 h -10.75903 a 1.344866,1.344866 0 0 0 -1.34462,1.34462 v 44.380753 a 1.344866,1.344866 0 0 0 1.34462,1.34462 h 4.03438 a 1.344866,1.344866 0 0 0 1.34513,-1.34462 V 94.035552 a 1.344866,1.344866 0 0 1 1.34462,-1.344618 h 10.75904 a 1.344866,1.344866 0 0 0 1.34513,-1.345137 V 72.96604 a 1.0824759,1.0824759 0 0 0 -0.31729,-0.765328 l -2.72696,-2.727999 a 0.4483039,0.4483039 0 0 0 -0.3173,-0.131258 z m -15.46675,3.17655 a 1.344866,1.344866 0 0 0 -1.34462,1.344621 v 9.862447 a 1.344866,1.344866 0 0 0 1.34462,1.345138 h 4.03489 a 1.344866,1.344866 0 0 0 1.34462,-1.345138 V 80.58728 a 1.344866,1.344866 0 0 1 1.34514,-1.345137 h 3.13779 a 1.344866,1.344866 0 0 0 1.34514,-1.344621 v -4.034896 a 1.344866,1.344866 0 0 0 -1.34514,-1.344621 z m 13.44879,21.070037 a 1.344866,1.344866 0 0 0 -1.34514,1.34513 v 37.656098 a 1.344866,1.344866 0 0 1 -1.34462,1.34514 h -10.75903 a 1.344866,1.344866 0 0 0 -1.34462,1.34462 v 4.0349 a 1.344866,1.344866 0 0 0 1.34462,1.34462 h 17.48317 a 1.344866,1.344866 0 0 0 1.34513,-1.34462 V 94.933171 a 1.344866,1.344866 0 0 0 -1.34513,-1.34513 z" /></g><text
       xml:space="preserve"
       style="font-weight:900;font-size:50.8px;font-family:Arial;-inkscape-font-specification:'Arial, Heavy';fill:#ffffff;fill-opacity:1;stroke:#000000;stroke-width:0.0799999;stroke-linejoin:bevel;stroke-dasharray:1.68"
       x="387.91461"
       y="342.7702"
       id="text1-0"><tspan
         sodipodi:role="line"
         id="tspan1-9"
         style="font-style:normal;font-variant:normal;font-weight:normal;font-stretch:normal;font-size:50.8px;font-family:Montserrat;-inkscape-font-specification:Montserrat;fill:#000000;fill-opacity:1;stroke-width:0.08"
         x="387.91461"
         y="342.7702">nterncify</tspan></text></g></svg>
